<?xml version="1.0" encoding="utf-8"?>
<!-- Generator: Adobe Illustrator 25.2.3, SVG Export Plug-In . SVG Version: 6.00 Build 0)  -->
<svg version="1.1" id="Layer_1" xmlns="http://www.w3.org/2000/svg" xmlns:xlink="http://www.w3.org/1999/xlink" x="0px" y="0px"
	 viewBox="0 0 70 70" style="enable-background:new 0 0 70 70;" xml:space="preserve">
<style type="text/css">
	.st0{fill:url(#SVGID_1_);}
</style>
<linearGradient id="SVGID_1_" gradientUnits="userSpaceOnUse" x1="8.6453" y1="34.9664" x2="61.0013" y2="34.9664">
	<stop  offset="0" style="stop-color:#4169E1"/>
	<stop  offset="1" style="stop-color:#000080"/>
</linearGradient>
<path class="st0" d="M8.9,33.8c-0.7-1.7,0.1-3.6,1.7-4.5c1.8-0.9,3.9-0.2,4.8,1.5c3.7,7.2,6.3,11.6,8,14.2c0.1-1.7,0.2-3.8,0.5-6.2
	c0.2-1.8,0.7-5.9,1.4-9.7c0.4-2.2,0.9-4,1.4-5.3c0.4-1,1.6-4.2,4.7-4.4c1-0.1,3,0.1,4.5,2.6c0.5,0.8,1,1.9,1.5,3.4
	c0.8,2.3,1.6,5.3,2.4,8.5c0.6,2.2,1.2,4.4,1.7,6.4c0.3-1.6,0.5-3.5,0.5-5.5c0-5.3-1.7-9.4-2.8-12.2c-0.4-1.1-0.8-1.9-1-2.7
	c-0.7-2.8,0.5-4.3,1.4-4.9c0.8-0.6,2.5-1.4,4.9-0.2c0.9,0.5,2,1.2,3.4,2.3c2.8,2.3,6.8,6.2,12.1,11.8c1.4,1.4,1.3,3.7-0.1,5
	c-1.4,1.4-3.7,1.3-5-0.1c-2.8-2.9-5-5.2-6.8-6.9c0.5,2.3,0.9,4.9,1,7.8c0,3.3-0.5,6.8-1.3,9.7c-0.5,1.6-1.9,6.6-6,6.8
	c-4,0.2-5.7-4.4-6.4-6.4c-1-2.6-1.8-6-2.7-9.2c-0.3-1-0.6-2.3-0.9-3.5c-0.5,3-0.9,6-1,7.5c-0.4,3.3-0.5,6-0.6,7.9
	c-0.1,1.7-0.1,2.9-0.3,3.9c-0.5,2.7-1.9,3.7-3.1,4.1C23,56.8,20,52.8,18.7,51c-2.5-3.4-5.8-9-9.9-17C9,34,9,33.9,8.9,33.8z"/>
</svg>
