<?xml version="1.0" encoding="utf-8"?>
<!-- Generator: Adobe Illustrator 25.2.3, SVG Export Plug-In . SVG Version: 6.00 Build 0)  -->
<svg version="1.1" id="Layer_1" xmlns="http://www.w3.org/2000/svg" xmlns:xlink="http://www.w3.org/1999/xlink" x="0px" y="0px"
	 viewBox="0 0 70 70" style="enable-background:new 0 0 70 70;" xml:space="preserve">
<style type="text/css">
	.st0{fill:url(#SVGID_1_);}
</style>
<linearGradient id="SVGID_1_" gradientUnits="userSpaceOnUse" x1="304.4021" y1="272.4963" x2="357.0215" y2="323.644" gradientTransform="matrix(1 0 0 1 -291 -266)">
	<stop  offset="0" style="stop-color:#4169E1"/>
	<stop  offset="1" style="stop-color:#000080"/>
</linearGradient>
<path class="st0" d="M51.9,59.1c-3,1.6-6.2,2.6-9.4,2.8c-5.5,0.4-11.2-1.4-16.7-5.2C21.2,53.5,17,49,13.7,43.6
	C8.6,35.5,4.8,24,9.5,16.2C12.7,10.6,20,7.4,29.8,7c9.4-0.4,20.5,2,31.1,6.8l-3.5,7.8c-9.4-4.2-19.1-6.3-27.2-6
	c-6.5,0.3-11.6,2.2-13.3,5c-1,1.6-1.2,4.3-0.5,7.4c0.7,3.5,2.3,7.4,4.6,11.1c2.7,4.4,6.2,8.2,9.9,10.7c2.6,1.9,6.7,4,11,3.6
	s9.3-3.2,12.5-7.1c2-2.5,3-5.1,2.8-7.1c-0.7-5.9-11.5-13.1-27.5-11.6l-0.8-8.5c9.2-0.9,18,0.6,25,4.3c6.9,3.6,11.2,9,11.9,14.8
	c0.5,4.4-1.1,9.3-4.6,13.6C58.5,54.8,55.3,57.4,51.9,59.1z"/>
</svg>
