<?xml version="1.0" encoding="utf-8"?>
<!-- Generator: Adobe Illustrator 25.2.3, SVG Export Plug-In . SVG Version: 6.00 Build 0)  -->
<svg version="1.1" id="Layer_1" xmlns="http://www.w3.org/2000/svg" xmlns:xlink="http://www.w3.org/1999/xlink" x="0px" y="0px"
	 viewBox="0 0 70 70" style="enable-background:new 0 0 70 70;" xml:space="preserve">
<style type="text/css">
	.st0{fill:url(#SVGID_1_);}
</style>
<linearGradient id="SVGID_1_" gradientUnits="userSpaceOnUse" x1="314.2746" y1="274.9171" x2="339.416" y2="327.2264" gradientTransform="matrix(1 0 0 1 -291 -266)">
	<stop  offset="0" style="stop-color:#4169E1"/>
	<stop  offset="1" style="stop-color:#000080"/>
</linearGradient>
<path class="st0" d="M38.1,60c-0.4,0-0.8-0.1-1.2-0.2c-1.6-0.7-2.4-2.6-1.7-4.2c0.9-2.1,1.4-4.1,1.7-6.1c-3.1,0.9-6,0.7-8.8-0.5
	c-5.3-2.4-8-7.9-8.8-11.9c-0.6-3.4,0-6.3,1.7-8c1.9-2,5.1-2.4,9-1.4c3.1,0.9,6.1,2.6,8.3,4.8c1.7,1.6,2.9,3.6,3.8,5.9
	c0.3-0.4,0.6-0.7,0.9-1.1c1.5-2,1.9-4.6,1.1-7.4c-0.7-2.5-3.4-9-14-13.7c-1.6-0.7-2.4-2.6-1.6-4.2c0.7-1.6,2.6-2.4,4.2-1.7
	C42,14.4,48.4,21,50.3,28.2c1.2,4.7,0.5,9.3-2.2,12.9c-0.7,0.9-2.3,2.9-4.6,4.8c0.1,3.9-0.8,8.1-2.4,12.2C40.6,59.2,39.4,60,38.1,60
	z M25.6,33.6c-0.2,0.5-0.2,1.7,0.4,3.6c0.7,2.1,2.3,4.8,4.8,5.9c1.9,0.9,4,0.5,6-0.5c-0.5-2.2-1.5-4.2-2.9-5.6c-1.3-1.2-3.1-2.4-5-3
	C27,33.4,26,33.5,25.6,33.6z"/>
</svg>
