<?xml version="1.0" encoding="utf-8"?>
<!-- Generator: Adobe Illustrator 25.2.3, SVG Export Plug-In . SVG Version: 6.00 Build 0)  -->
<svg version="1.1" id="Layer_1" xmlns="http://www.w3.org/2000/svg" xmlns:xlink="http://www.w3.org/1999/xlink" x="0px" y="0px"
	 viewBox="0 0 70 70" style="enable-background:new 0 0 70 70;" xml:space="preserve">
<style type="text/css">
	.st0{fill:url(#SVGID_1_);}
</style>
<linearGradient id="SVGID_1_" gradientUnits="userSpaceOnUse" x1="297.4074" y1="284.2223" x2="348.9824" y2="314.0321" gradientTransform="matrix(1 0 0 1 -291 -266)">
	<stop  offset="0" style="stop-color:#4169E1"/>
	<stop  offset="1" style="stop-color:#000080"/>
</linearGradient>
<path class="st0" d="M39.2,57.7l-5.4-4.9c4.9-5.4,8.3-9.4,10.6-12.3c-0.5,0.3-1,0.6-1.4,0.9c-3.5,2.2-7.2,4.4-10.3,5.9
	c-1.9,0.9-3.4,1.5-4.7,1.8c-3,0.7-4.8-0.3-5.7-1.3c-1.7-1.7-1.5-4.1-1.2-5.8c0.3-1.3,0.9-2.9,1.9-4.7c0.7-1.5,1.6-3,2.6-4.6
	l-0.1,0.1c-1.6,1.1-5.9,4.1-9.6,2c-1.1-0.6-2.6-2-3-4.9c-0.2-1.4-0.2-3.1,0.1-5.2c0.4-3.2,1.4-7.2,3-12.3l6.9,2.2
	C20.5,22.2,20,26,20,27.8c0.6-0.3,1.3-0.8,2.3-1.6c1.9-1.4,4-3.3,5.8-5c1.6-1.4,3.1-2.8,4.3-3.7l0,0c0.8-0.6,1.5-1.1,2.1-1.3
	c2.4-1.1,4.1-0.1,4.7,0.4c0.7,0.5,2.1,2.1,1.2,5c-0.3,0.8-0.6,1.7-1.3,2.8c-1,1.9-2.5,4.2-4,6.7c-1.7,2.8-3.5,5.7-4.9,8.3
	c-0.4,0.7-0.7,1.2-0.9,1.8c0.5-0.2,1-0.5,1.6-0.8c2.5-1.4,5.4-3.1,8.2-4.9c3-1.8,5.8-3.6,8.1-4.7c1.4-0.7,2.5-1.2,3.5-1.4
	c1.2-0.3,3.6-0.6,5.2,1.2c0.9,0.9,1.6,2.6,0.6,5.3c-0.5,1.2-1.3,2.6-2.6,4.5C51.2,44,46.4,49.8,39.2,57.7z"/>
</svg>
