<?xml version="1.0" encoding="utf-8"?>
<!-- Generator: Adobe Illustrator 25.2.3, SVG Export Plug-In . SVG Version: 6.00 Build 0)  -->
<svg version="1.1" id="Layer_1" xmlns="http://www.w3.org/2000/svg" xmlns:xlink="http://www.w3.org/1999/xlink" x="0px" y="0px"
	 viewBox="0 0 210 60" style="enable-background:new 0 0 210 60;" xml:space="preserve">
<style type="text/css">
	.st0{fill-rule:evenodd;clip-rule:evenodd;fill:#FFFFFF;}
</style>
<g>
	<path class="st0" d="M53.9,37.1v-0.4c0-6.1,5.9-14.4,11.8-14.4c2.1,0,3.5,1.4,3.5,3.5c0,4.6-3.3,9-8.4,12.2
		c0.4,0.5,0.7,0.6,1.3,0.6c2,0,5.2-1.9,7.6-3.7l0.1-0.3c0.9-5.9,3.1-11.8,7.3-17.5c4.4-5.8,9.6-9.6,13-9.6c2,0,3.1,1.4,3.1,2.9
		c0,6.4-9.9,17.8-16.9,24.3l0.1,0.4c0.3,1.1,1.1,1.8,2.2,1.8c2.4,0,4.6-1.2,7.6-3.5l0.1-0.3c1.2-6.2,3.5-11.9,8.5-18.5
		c4.9-6.5,10.6-11.1,13.7-11.1c1.9,0,2.9,1.2,2.9,2.8c0,5.7-9.1,19.9-19.2,28.2v0.3c0.1,1.7,1.6,2.9,3.1,2.9c0.7,0,1.2-0.1,2.2-0.7
		c0.1,0.3,0.1,0.5,0.1,0.8c0,3.8-3.5,6.7-6.2,6.7c-3.2,0-4.7-2-5.2-5.1L86,39.7c-5,3.2-6.9,4.4-10.3,4.4c-2.6,0-4.4-1.7-5.4-4.2
		L70.1,40c-4.2,2.9-6.2,4-9.9,4c-2.7,0-3.8-0.9-5.2-2.7l-0.2,0.1c-0.9,0.3-1.8,0.5-2.6,0.5c-1.4,0-2.3-0.8-2.3-1.8
		C49.9,39,49.9,39,53.9,37.1L53.9,37.1z M93.1,27.6L93,27.8c5.7-5.5,11-13.1,11-15.2c0-0.4-0.2-0.7-0.5-0.7
		C101,11.9,95.1,21.6,93.1,27.6L93.1,27.6z M76.3,28.9l-0.1,0.3c6.1-5.7,10.3-13.1,10.3-14c0-0.4-0.3-0.7-0.5-0.7
		c-1.2,0-3.8,3-6.1,6.3C77.9,23.9,76.8,26.2,76.3,28.9L76.3,28.9z M59.6,33.9v0.4c1.7-1,4.8-4.3,4.8-6.4c0-0.3-0.1-0.5-0.6-0.5
		C61.9,27.4,59.8,31.5,59.6,33.9L59.6,33.9z"/>
	<path class="st0" d="M150,42.2l1.4-2.3l-0.2,0.1c-3.2,2.1-3.7,2.4-5.4,2.4c-2.8,0-4.6-1.8-4.6-4.4c0-7.1,9.8-15.1,17-15.1
		c1.1,0,2.2,0.3,2.2,1.4c0,2-11.6,4.8-11.6,10.1c0,0.7,0.5,1.3,1.5,1.3c4.6,0,6.5-9.6,10.5-9.6c1.3,0,2.1,0.9,2.1,1.8
		c0,1.6-1.2,3.8-4.7,9.4l0.1-0.1c10.3-6.4,17.6-16.2,24.3-16.2c1.8,0,2.9,1,2.9,2.9c0,3.8-4.8,0-4.8,5.9c0,0.9,0.1,2,0.1,2.9
		c0,5.9-5.1,12.9-11.2,12.9c-3.5,0-5.8-1.9-5.8-5c0-0.5,0.1-1.3,0.5-2.5l-0.2,0.1c-2.3,1.6-6.7,4.8-9.7,6.1c-0.5,0.8-2,3.4-3.1,5.1
		c-1.2,1.7-2.4,3.3-3.7,4.6c-3.3,3.5-7.2,5.9-10.1,5.9c-2,0-3.8-1.7-3.8-3.9c0-2.7,2-6.2,6.1-9C142.6,45.2,144.8,44.8,150,42.2
		L150,42.2z M175.8,29l-8.2,6.9c0.5-0.1,0.9-0.1,1.2-0.1c2.5,0,1.2,2.9,2.9,2.9c2.4,0,4-4.7,4.2-9.2L175.8,29L175.8,29z M146.9,47.9
		l0.1-0.2c-3.3,1.7-7.5,3.9-7.5,6c0,0.4,0.4,0.7,0.7,0.7C141.1,54.4,144.9,51.5,146.9,47.9L146.9,47.9z"/>
	<path class="st0" d="M124.6,29.2h-0.2c-3.1,0-4.3-0.5-5.3-0.5c-1.6,0,0,3.6-4.6,10.2c-2.9,4.3-6,6-9.3,6c-4,0-6.1-2.7-6.1-6.3
		c0-6.7,6.7-14.9,13.3-14.9c1.2,0,2.2,0.7,2.2,1.7c0,1.2-7.9,5-7.9,10.1c0,1.1,0.8,1.9,2,1.9c5.6,0,4.4-12.9,8.8-12.9
		c1.8,0,4,1.4,6.9,1.4c4.3,0,8.1-2.6,10.4-2.6c1.4,0,2.2,0.5,2.2,1.5c0,2.1-10.1,5.3-10.1,10.7c0,0.7,0.5,1.2,1.4,1.2
		c5.2,0,6.4-12.6,12.5-12.6c1,0,1.9,0.7,1.9,2.2c0,1.4-0.8,3.4-3.4,7.5c-2.3,3.8-2.8,4-4.5,7c2-0.7,3.9-3.3,4.8-3.3
		c0.3,0,0.5,0.4,0.5,0.9c0,3.2-5.3,6.9-8.8,8.4c-4.4,5.9-9.9,13.3-16.5,13.3c-2,0-3.8-1.6-3.8-3.8c0-6.8,8.6-10,16.7-12.9l2-3.2
		l-0.2,0.1c-2,1.3-4.6,2.2-6.1,2.2c-2.7,0-4.3-1.7-4.3-4.4C119.1,35,120.8,33,124.6,29.2L124.6,29.2z M124.2,48.7l0.1-0.2
		c-2.4,0.7-7.4,3.3-7.4,5.2c0,0.4,0.4,0.8,0.8,0.8C119.1,54.5,121.8,52.2,124.2,48.7L124.2,48.7z"/>
	<path class="st0" d="M44.2,26.1c0.4,1,0.6,1.4,0.6,2.3c0,3-3.9,8-3.9,14.5c0,3.9,2.5,7.1,6.5,7.1c2.2,0,4.4-1.4,4.6-2.9
		c-1.9,0-2.9-1.5-2.9-3.3c0-4,2.8-10.9,2.8-15c0-1.5-0.3-2.2-1-3.5l-0.1-0.2c7.5-3.9,12.7-8.2,16.9-12.2c4.1-3.8,5.8-6.5,5.8-9.2
		C73.4,1.3,72.2,0,70,0c-6,0-11.5,16.4-23.3,22L44.2,26.1L44.2,26.1z"/>
	<path class="st0" d="M41.9,18.7c0,2.5-7.8,10.5-8.9,11.5c-6.8,6.3-8.6,8-8.6,11.4c0,2.1,1.5,3.6,3.5,3.6c4.4,0,7-3.9,14.2-16.9
		C52,10.1,53.5,10.9,53.5,8.6c0-0.9-0.6-1.4-1.3-1.4c-2.6,0-4.7,2.7-14.5,7.8c-8.8,4.6-12,6.9-12,10.3c0,1.9,1.2,3.3,2.9,3.3
		c5.3,0,9.4-10.3,12.9-10.3C41.8,18.3,41.9,18.4,41.9,18.7L41.9,18.7z"/>
	<path class="st0" d="M166.1,16.9c0,2.4,2.1,2.2,2.1,3.6c0,1.1-1.3,2-1.3,2.7c0,0.4,0.5,0.7,1,0.7c3.3,0,6.5-4.9,6.5-7.5
		c0-2.1-1.8-3.8-3.9-3.8C168.1,12.7,166.1,14.7,166.1,16.9L166.1,16.9z"/>
	<path class="st0" d="M183.2,40.3c0.9,0,1.7,0.7,1.7,1.6c0,1-0.9,1.6-1.7,1.6c-0.9,0-1.7-0.7-1.7-1.6
		C181.6,41,182.4,40.3,183.2,40.3L183.2,40.3z M183.2,40.6c-0.8,0-1.4,0.6-1.4,1.4c0,0.8,0.6,1.4,1.4,1.4c0.7,0,1.4-0.5,1.4-1.4
		C184.7,41.2,184,40.6,183.2,40.6L183.2,40.6z M182.9,42.1v0.7h-0.2v-1.7h0.8c0.3,0,0.5,0.1,0.5,0.5c0,0.2-0.1,0.3-0.2,0.4
		c0.1,0,0.2,0.1,0.2,0.3v0.3c0,0.1,0,0.1,0.1,0.2l0,0h-0.3c0-0.1,0-0.4,0-0.4c0-0.1,0-0.3-0.3-0.3H182.9L182.9,42.1z M182.9,41.3
		v0.6h0.5c0.2,0,0.4,0,0.4-0.3s-0.2-0.3-0.3-0.3H182.9L182.9,41.3z"/>
</g>
</svg>
