<?xml version="1.0" encoding="utf-8"?>
<!-- Generator: Adobe Illustrator 25.2.3, SVG Export Plug-In . SVG Version: 6.00 Build 0)  -->
<svg version="1.1" id="Layer_1" xmlns="http://www.w3.org/2000/svg" xmlns:xlink="http://www.w3.org/1999/xlink" x="0px" y="0px"
	 viewBox="0 0 210 60" style="enable-background:new 0 0 210 60;" xml:space="preserve">
<style type="text/css">
	.st0{fill-rule:evenodd;clip-rule:evenodd;fill:#FFFFFF;}
</style>
<g>
	<path class="st0" d="M86.1,35.5c0-9.3-6.7-16.9-15.6-16.9s-16.1,7.6-16.1,16.9s7.2,16.9,16.1,16.9c8.3,0,13-4.3,15.1-11l0,0h-7.4
		l0,0c-1.6,3.3-4.7,4.7-7.8,4.7c-4,0-7.4-3.3-8.4-7.8l0,0h23.8l0,0C86,37.3,86.1,36.4,86.1,35.5L86.1,35.5L86.1,35.5L86.1,35.5z
		 M62.2,32.2c1.1-4.2,4.4-7.3,8.2-7.3s6.9,3.1,7.7,7.3l0,0H62.2L62.2,32.2L62.2,32.2z"/>
	<path class="st0" d="M190.2,41.4c-2.2,0-4,1.8-4,4s1.8,4,4,4s4-1.8,4-4C194.2,43.1,192.4,41.4,190.2,41.4L190.2,41.4L190.2,41.4
		L190.2,41.4z M190.2,48.9c-2,0-3.6-1.6-3.6-3.6s1.5-3.6,3.6-3.6c2,0,3.5,1.6,3.5,3.6C193.8,47.3,192.2,48.9,190.2,48.9L190.2,48.9
		L190.2,48.9L190.2,48.9z"/>
	<path class="st0" d="M182.8,35.5c0-9.3-6.7-16.9-15.6-16.9c-8.9,0-16.1,7.6-16.1,16.9s7.2,16.9,16.1,16.9c8.3,0,13.5-3.7,15.1-11
		l0,0h-7.4l0,0c-1.6,3.3-4.7,4.7-7.8,4.7c-4,0-7.4-3.3-8.4-7.8l0,0h23.8l0,0C182.7,37.3,182.8,36.4,182.8,35.5L182.8,35.5
		L182.8,35.5L182.8,35.5z M158.9,32.2c1.1-4.2,4.4-7.3,8.2-7.3s6.9,3.1,7.7,7.3l0,0H158.9L158.9,32.2L158.9,32.2z"/>
	<polygon class="st0" points="115.7,8 42.4,8 42.4,38.5 42.3,38.5 24.1,8 15.8,8 15.8,51.5 24.2,51.5 24.2,22.9 24.3,22.9 
		41.8,51.5 50.8,51.5 50.8,14.3 115.7,14.3 115.7,8 	"/>
	<path class="st0" d="M96.2,27.6c0-1.4,1.5-3.9,6.1-3.9c5.2,0,6.2,3.6,6.6,4.9l0,0h7l0,0c-0.7-8.2-7.8-10.5-14-10.5
		C92,18.1,89,24.5,89,29.2c0,11.9,20.3,7.1,20.3,13.6c0,2.8-1.8,4-7,4c-5.3,0-6.9-2.7-6.9-5.3l0,0h-6.7l0,0
		c0.2,8.5,6.7,11.1,14,11.1c6.2,0,14.3-1.8,14.3-11.1C116.9,29.1,96,33.9,96.2,27.6L96.2,27.6L96.2,27.6L96.2,27.6z"/>
	<path class="st0" d="M128.3,7.9h-8V20h-2.4v6h2.4v13.6l0,0c0,4.1,3.2,11.6,10.5,11.6c1.4,0,5-0.1,5-0.1l0,0v-5.7h-1.7l0,0
		c-3-0.1-5.8-1.8-5.8-6.9l0,0V26.1h7.5v-6h-7.5V7.9L128.3,7.9L128.3,7.9z"/>
	<polygon class="st0" points="139.4,51.5 147.8,51.5 147.8,8 139.4,8 139.4,51.5 	"/>
	<polygon class="st0" points="180.9,7.5 152.6,10.6 152.6,14.2 180.9,14.2 180.9,7.5 	"/>
	<path class="st0" d="M190.8,45.5c0.7-0.1,1.2-0.5,1.2-1.2c0-0.8-0.5-1.3-1.5-1.3l0,0h-1.8v4.7h0.4v-2.2h1.2l1.4,2.2h0.4L190.8,45.5
		L190.8,45.5L190.8,45.5z M190.2,45.1h-1v-1.8h1.3l0,0c0.6,0,1.2,0.2,1.2,0.9C191.7,45.1,190.9,45.1,190.2,45.1L190.2,45.1
		L190.2,45.1L190.2,45.1z"/>
</g>
</svg>
