<?xml version="1.0" encoding="utf-8"?>
<!-- Generator: Adobe Illustrator 25.2.3, SVG Export Plug-In . SVG Version: 6.00 Build 0)  -->
<svg version="1.1" id="Layer_1" xmlns="http://www.w3.org/2000/svg" xmlns:xlink="http://www.w3.org/1999/xlink" x="0px" y="0px"
	 viewBox="0 0 210 60" style="enable-background:new 0 0 210 60;" xml:space="preserve">
<style type="text/css">
	.st0{fill:#FFFFFF;}
</style>
<path class="st0" d="M111.1,33.3c-0.4-0.8-0.5-1.2-0.5-2.2c0.1-1.8,1.3-3.2,3-3.4l0.5-0.1l-0.5,1.1c-0.7,1.5-1.5,3.3-1.8,4.2
	c-0.1,0.4-0.3,0.7-0.3,0.7C111.4,33.8,111.3,33.6,111.1,33.3L111.1,33.3z M115.6,35.9c-1.1-0.2-1.3-0.3-1.3-0.6
	c0.4-1.4,2.8-6.7,3.1-6.7c0.1,0,0.5,0.4,0.9,0.8c1.4,1.4,2,3.1,1.7,5.3c-0.1,0.6-0.2,1.1-0.2,1.1C119.6,36,116.3,36,115.6,35.9z
	 M71.3,42.1c-1-0.6-0.8-2.6,0.6-5.4c2.4-4.9,6.5-9.3,8.8-9.3c0.8,0,1.1,0.3,1.2,1.1c0.3,3.4-5.1,11.9-8.7,13.5
	C72.6,42.3,71.7,42.3,71.3,42.1L71.3,42.1z M93.3,42.5c-1-0.6-1.4-2.2-1-4.5c0.5-2.6,1.6-5,3.3-6.6c1.7-1.7,3.7-2.1,5.2-1.1
	c0.5,0.3,1.2,1.2,1.2,1.5s-0.7,2.2-1.3,3.6c-1.5,3.4-3.4,6-5.1,6.9C94.7,42.7,93.9,42.8,93.3,42.5L93.3,42.5z M113.8,42.8
	c-0.8-0.5-0.8-2.2-0.3-4.8c0.2-0.7,0.2-0.8,0.4-0.8c0.6,0.2,2.4,0.5,3.7,0.6c0.9,0,1.6,0.1,1.6,0.1s-0.2,0.4-0.4,0.9
	c-0.8,1.8-2.2,3.5-3.3,4C115,43,114.2,43,113.8,42.8z M169.7,58c0.2-0.1,0.2-0.2,0.2-1.5c0-0.8,0.1-1.8,0.2-2.3c0.3-1.3,1-3.5,2-5.8
	c1-2.2,4.1-8.6,6-12.2c1.8-3.4,2.3-4.6,2.3-5.9c0-0.8-0.2-1.1-0.9-1.1c-0.8,0-1.5,0.6-3.1,3c-3.3,5-7,8.6-8.8,8.6
	c-0.6,0-1.2-0.5-1.4-1.1c-0.4-1.3,0.1-3.4,1.6-7.1c0.8-2,0.9-3.1,0.3-3.4c-0.4-0.2-0.8,0-1.4,0.5c-0.8,0.7-1.3,1.5-2.2,3.4
	c-0.4,0.9-1.1,2.1-1.5,2.6c-2.3,3.6-5.3,6.2-6.9,6.2c-1.2,0-1.6-0.7-1.4-2.3c0.2-1.5,0.8-2.8,2.4-5.6c1.3-2.2,1.5-2.7,1.4-3.7
	c0-0.5-0.4-0.9-0.8-0.9c-0.2,0-0.8,0.3-1.4,0.6c-1.8,0.9-2.8,1.1-4.4,0.8l-0.8-0.2l0.1-0.3c0.3-1.6,0.3-2.6-0.1-3.2
	c-0.2-0.3-0.8-0.6-1.2-0.6c-1.4,0-2.4,1.3-2.4,3.1c0,1,0.2,1.6,0.9,2.4l0.4,0.5l-0.4,1c-1.8,4.6-4.7,8-6.8,8c-1.3,0-2-1.2-2-3.2
	c0-1.1,0-1,1-2.2c1.3-1.5,2.4-3.5,2.7-4.7c0.3-1.4-0.6-2.1-1.8-1.5c-0.5,0.3-1.8,1.6-2.5,2.6c-0.7,1.1-1.4,2.6-1.8,3.8
	c-0.2,0.6-0.4,1.2-0.5,1.4c-0.2,0.6-1.6,2.1-2.3,2.8c-1.1,0.9-1.9,1.3-2.7,1.3c-1.3,0-1.8-0.6-1.8-2c0-1.9,0.7-3.7,2.4-6
	c2.1-2.9,2.4-4.5,0.9-4.5c-0.8,0-1.5,0.4-2.7,1.7c-1.6,1.7-3.8,3-6.3,3.9l-0.9,0.3l-0.1-1.5c0-1.3-0.1-1.6-0.4-2.4
	c-0.7-2-1.8-3.3-3.6-4.3c-0.6-0.3-0.6-0.4-0.5-0.6c0.1-0.1,0.4-0.7,0.7-1.2c1-1.6,3-4.6,4.2-6.2l1.1-1.4l1-0.5
	c1.7-0.8,2.7-1.7,3.3-3c0.2-0.3,0.3-0.7,0.3-0.9c0.1-0.4-0.1-1-0.4-1.2c-0.9-0.5-3,0.7-5.6,3.2l-1.2,1.1l-0.9,0.1
	c-1.2,0.2-5.9,0.2-7,0c-2.4-0.4-4.2-0.9-7.3-2.1c-2.6-1-3.5-1.1-4.2-0.7c-0.9,0.6-0.9,1.2-0.2,3.8c0.7,2.2,0.9,3.2,1,4.9
	c0.1,2.1-0.1,4.2-0.5,6.5l-0.1,0.5l-0.3-0.4c-0.8-1.1-2-1.6-3.8-1.6s-3.4,0.7-5,2.2s-2.6,3-3.6,5.3c-1.6,3.6-3.4,6.4-4.9,7.1
	c-0.6,0.3-1.4,0.4-1.9,0.1c-0.7-0.4-1-1.6-0.8-3.1c0.2-1.3,0.3-1.9,1.2-4.6c1-3.1,1.2-4,1.2-5s-0.1-1.5-0.6-2.2
	c-0.9-1.4-3.3-1.9-5.5-1.2c-2.5,0.9-5.7,3.4-8.2,6.7c-1.2,1.6-3.7,4-5.2,5.4c-5.8,4.8-12.5,7.5-18.7,7.5c-5.3,0-9.3-2.4-11.1-6.7
	c-0.7-1.6-0.8-2.5-0.8-5c0-4,0.9-7.6,2.9-11.6c1.7-3.4,3.5-6,6.2-8.7c5.6-5.7,12.4-9,19.7-9.5c4.3-0.3,7.4,0.8,9,3.2
	c2.4,3.5,1.7,9.1-1.5,13.8c-0.8,1.2-3.1,3.5-4.4,4.5c-3.9,2.9-8.7,4.6-12.1,4.2c-3.5-0.4-5.3-3.7-4.1-7.6c1.1-3.8,4.8-7.3,10.3-9.5
	c1.4-0.6,1.6-0.8,1.3-1.1c-0.6-0.6-3.7,0-6.2,1.3c-2.5,1.2-5.2,3.6-6.8,5.8c-0.9,1.3-1.8,3.2-2.2,4.5c-0.3,1-0.3,1.3-0.2,2.5
	c0,1.1,0.1,1.6,0.3,2.1c1.6,4.5,7.1,5.8,14.1,3.4c1.5-0.5,4.5-2.1,6-3.1c1.9-1.2,3-2.2,4.6-3.8c4.3-4.3,6.3-9,6-13.6
	c-0.2-2.4-1-4.2-2.6-5.8c-1.4-1.4-2.9-2.2-5.3-2.7C68.7,1.9,64.7,1.8,63,2c-9.7,1-19,6.2-25.8,14.3c-3.9,4.6-6.6,10.3-7.4,15.3
	c-0.2,1.3-0.2,4.5,0,5.7c0.7,4.5,3,7.8,6.9,9.7c6,2.9,13.9,2.4,21.4-1.4c3-1.5,5.9-3.5,8.2-5.7c0.7-0.7,0.9-0.8,0.8-0.6
	c-0.4,1.6-0.4,3.3,0,4.3c0.3,0.8,0.9,1.5,1.6,1.8c0.8,0.4,2.2,0.5,3.2,0.1c1-0.3,2-0.9,3.1-1.7c0.9-0.7,2.7-2.5,3.5-3.5l0.4-0.5
	l-0.1,0.6c-0.1,0.7,0.1,2,0.4,2.8c0.4,0.9,1.3,1.8,2.1,2.1c1,0.3,1.8,0.2,2.9-0.4c0.8-0.4,1.1-0.6,2-1.5c0.6-0.6,1.4-1.5,1.8-2.1
	l0.7-1l0.1,0.9c0.3,1.7,1.2,3,2.5,3.7c0.6,0.3,0.9,0.4,1.7,0.4c2.3,0.1,4.2-0.8,6.3-2.9c4.9-5,7.9-16,6.7-24.6
	c-0.1-0.4-0.1-0.5,0.1-0.4c0.4,0.2,3.4,0.7,4.7,0.9c1.7,0.2,5.1,0.4,7.1,0.3c0.9,0,1.6,0,1.6,0s-0.3,0.4-0.6,0.9
	c-1.2,1.6-3.3,4.9-3.8,6c-0.2,0.4-0.2,0.4-0.8,0.4c-2.2,0-4.4,1.1-5.5,2.7s-1.2,3.5-0.4,5.2c0.3,0.6,1.4,1.8,1.9,2.1
	c0.2,0.1,0.2,0.1-0.1,1.4c-0.5,1.9-0.6,3.4-0.4,4.5c0.3,2.3,1.6,3.7,3.6,3.8c1.1,0.1,1.9-0.1,3.1-0.7c2.2-1.1,4.4-3.9,5.5-7
	c0.2-0.5,0.2-0.5,1.2-0.8c1.1-0.4,2.5-1,3.6-1.6l0.7-0.4l-0.3,0.7c-1,2.2-1.3,4.4-0.9,6c0.6,2.3,2.2,3.3,4.7,2.7
	c1.5-0.4,3.6-1.7,4.8-3.1c0.5-0.6,0.7-0.7,0.7-0.3s0.8,1.8,1.2,2.2c0.9,0.8,2.5,1.1,3.9,0.8c2.6-0.6,4.9-2.9,6.9-6.9
	c0.4-0.8,0.9-2,1.1-2.5l0.4-1.1l0.6,0.2c0.4,0.1,0.9,0.2,1.8,0.1c0.7,0,1.2,0,1.2,0s-0.2,0.3-0.4,0.7c-0.6,1.1-1.3,2.4-1.7,3.8
	c-1.1,3.4-0.8,5.7,0.9,6.5c1.6,0.7,3.6,0.3,5.7-1c1.1-0.7,2.9-2.5,4-3.9l0.7-0.9l0.1,1.2c0.2,3.4,1.8,4.9,4.3,4.2
	c1.3-0.4,2.9-1.5,4.8-3.4c0.9-1,1.4-1.3,1.4-1c0,0-0.3,0.7-0.7,1.5c-4.3,8.2-5.8,12-5.8,14.6c0,0.8,0.1,1.3,0.5,1.8
	C168.1,58,169.1,58.3,169.7,58L169.7,58z"/>
</svg>
