<?xml version="1.0" encoding="utf-8"?>
<!-- Generator: Adobe Illustrator 25.2.3, SVG Export Plug-In . SVG Version: 6.00 Build 0)  -->
<svg version="1.1" id="Layer_1" xmlns="http://www.w3.org/2000/svg" xmlns:xlink="http://www.w3.org/1999/xlink" x="0px" y="0px"
	 viewBox="0 0 300 300" style="enable-background:new 0 0 300 300;" xml:space="preserve">
<style type="text/css">
	.st0{fill:#FFFFFF;}
	.st1{opacity:0.1;fill:#999999;enable-background:new    ;}
	.st2{opacity:0.1;fill:none;stroke:#999999;stroke-width:3;stroke-miterlimit:10;enable-background:new    ;}
	.st3{opacity:0.1;fill:none;stroke:#999999;stroke-width:4;stroke-miterlimit:10;enable-background:new    ;}
</style>
<rect class="st0" width="300" height="300"/>
<path class="st1" d="M268.8,151.3l-37.1-37.1l-37.1,37.1L177,133.7L231.7,79l54.7,54.7L268.8,151.3z"/>
<path class="st1" d="M268.8,217.5l-37.1-37.1l-37.1,37.1L177,199.9l54.7-54.7l54.7,54.7L268.8,217.5z"/>
<path class="st1" d="M268.8,283.8l-37.1-37.1l-37.1,37.1L177,266.2l54.7-54.7l54.7,54.7L268.8,283.8z"/>
<path class="st2" d="M18.3,249.9l14.1-14.1l14.1,14.1l14.1-14.1l14.1,14.1"/>
<path class="st2" d="M66.3,269.9l14.1-14.1l14.1,14.1l14.1-14.1l14.1,14.1"/>
<path class="st3" d="M41.7,66.6c8.6,0,15.6-7,15.6-15.6s-7-15.6-15.6-15.6s-15.6,7-15.6,15.6S33.1,66.6,41.7,66.6z"/>
<path class="st3" d="M50.7,57.6c8.6,0,15.6-7,15.6-15.6s-7-15.6-15.6-15.6s-15.6,7-15.6,15.6S42.1,57.6,50.7,57.6z"/>
</svg>
