<?xml version="1.0" encoding="utf-8"?>
<!-- Generator: Adobe Illustrator 25.2.3, SVG Export Plug-In . SVG Version: 6.00 Build 0)  -->
<svg version="1.1" id="Layer_1" xmlns="http://www.w3.org/2000/svg" xmlns:xlink="http://www.w3.org/1999/xlink" x="0px" y="0px"
	 viewBox="0 0 210 60" style="enable-background:new 0 0 210 60;" xml:space="preserve">
<style type="text/css">
	.st0{fill-rule:evenodd;clip-rule:evenodd;fill:#E70000;}
</style>
<g>
	<path class="st0" d="M90.5,28.2c-1.7-3.5-7-4.2-9.2-2c-1,1-0.7,3.2,1.2,4.2c1.1,0.6,4,1.9,5.4,2.6c5.9,2.8,6.7,7.3,6.6,9.3
		c-0.6,9.5-8.9,10.1-12.3,10.2c-3.6,0.1-7.2-1.4-8.4-2c-1-0.6-1.5-1.1-1.5-1.1l1.7-7.6h0.2c0,0,1.2,5.7,7.5,5.7
		c4.5,0,5.1-3.3,4.2-4.8c-1.2-1.9-4.5-2.9-7.5-4.4c-2.3-1.1-5.8-4-5.5-9c0.5-7.3,6.9-9.5,11.8-9.5c4.8,0,7.4,1.8,7.4,1.8
		c0.8,0.5,1.1,0.8,1.1,0.8l-2,6.9v0.1H91C91,29.4,91,29.1,90.5,28.2L90.5,28.2z"/>
	<path class="st0" d="M142.8,39.6c-5.3-16-6.5-18.9-6.5-18.9h-10.3v0.2c1.5,0.1,1.4,2,1,3.1c0-0.1-7.9,24.8-8.6,27.7h7.9v-0.2
		c-0.1,0-1.2-0.7-1.1-2.6c0.2-1.5,1-4.5,1-4.5h8.5c0.6,1.8,0.8,2.7,1.1,3.5c1,3.2,1.8,3.7,1.8,3.7H148v-0.1
		c-1.1-0.1-1.8-1.8-2.2-2.7C145.4,47.5,145,46.5,142.8,39.6L142.8,39.6L142.8,39.6z M133.2,39.3h-5.4h-0.2l0.1-0.2l2.7-9.6v-0.2l0,0
		l0.1,0.2c0.2,0.8,1.5,5.1,2.8,9.6l0.1,0.2H133.2L133.2,39.3z"/>
	<path class="st0" d="M186.4,15.4c2.8-1.8,3.5-5,3.3-7.8V7.5c0,0-3.6,3.3-18.6,8.8v0.1C171.1,16.5,182.6,17.6,186.4,15.4L186.4,15.4
		z"/>
	<path class="st0" d="M118.2,29.1c-1.1-3.6-4.6-4.5-6.6-4.3c-2.4,0.3-6.7,2.5-6.9,9.1c-0.3,9.4,4.4,12.2,7.7,12.8
		c4.9,0.8,6.5-2.2,6.7-2.4h0.2c-1.7,6.2-4.2,8.2-9.4,8.2c-5,0-13.7-4.1-13.9-16.1c-0.1-12.2,8.9-16.5,15.2-16.8
		c6.2-0.2,9.1,2.3,9.1,2.3c0.5,0.5,0.7,0.8,0.7,0.8l-2.5,6.6h-0.1L118.2,29.1L118.2,29.1z"/>
	<path class="st0" d="M50.6,51.6c-0.1-0.2-0.6-1.8-0.6-3.7c0-2.6,0-16.4,0-16.4s0.3-10.4-2.2-10.5v-0.2H70l-1,7.5v0.2h-0.1
		c0-0.1,0-0.2,0-0.2c-0.2-0.5-0.6-2.2-3.2-2.2c-2.3,0-6-0.1-6.8-0.1h-0.1V26v6.3v0.2l0.1-0.1c4.3,0,9.4,0,9.4,0l-1,6.2h-0.1v-0.1
		c0,0-0.1-0.8-1.7-0.8c-1.5,0-5.8-0.1-6.6-0.1h-0.1v0.1V46v0.1h0.1c0.7,0.1,4.5,0.6,7.7-0.1c3.8-0.9,4.5-2.5,4.6-2.6l0.2,0.1l-2,8
		H50.6L50.6,51.6z"/>
	<path class="st0" d="M171.9,51.6c-0.2-0.2-0.6-1.8-0.6-3.7c0-2.6,0-16.4,0-16.4s0.2-10.4-2.2-10.5v-0.2h22.2l-1,7.5v0.2h-0.1
		c0-0.1-0.1-0.2-0.1-0.2c-0.1-0.5-0.6-2.2-3.1-2.2c-2.3,0-6-0.1-6.8-0.1h-0.1V26v6.3v0.2l0.1-0.1c4.3,0,9.3,0,9.3,0l-0.9,6.2h-0.1
		v-0.1c0,0-0.2-0.8-1.7-0.8c-1.6,0-5.9-0.1-6.6-0.1h-0.1v0.1V46v0.1h0.1c0.7,0.1,4.5,0.6,7.7-0.1c3.8-0.9,4.5-2.5,4.6-2.6l0.1,0.1
		l-1.9,8H171.9L171.9,51.6z"/>
	<path class="st0" d="M159.2,51.5v-0.1c-0.1-0.1-1.8-0.3-1.8-4v-9.6v-0.1h0.1c0.7,0,4.6,0.1,6.2,0.1c1.5,0,1.7,0.8,1.7,0.8v0.1h0.1
		c0,0,0.6-4.2,0.9-6.2c0,0-4.6,0-8.9,0l-0.1,0.1v-0.2V26v-0.1h0.1c0.8,0,4.2,0.1,6.3,0.1c2.6,0,3.1,1.7,3.2,2.2c0,0,0,0.1,0,0.2h0.2
		v-0.2c0.3-2.3,1-7.5,1-7.5h-21.8v0.2c2.4,0.2,2.2,10.5,2.2,10.5v16.8c0,0-0.1,2.5,0.6,3.3H159.2L159.2,51.5z"/>
	<path class="st0" d="M18.9,41c0-7.4-0.1-14.1-0.1-15.1c0-0.1,0-0.2,0-0.2l0,0c0,0.1,0.1,0.2,0.1,0.2c0.1,0.1,1.6,1.6,8.8,13
		c6,9.5,5.4,8.6,6.2,9.6c0.7,1.1,1.6,2.8,3.6,2.8c2.2,0,7.7,0,7.7,0s-0.5-1.8-0.5-7.9c0-5,0-27.5,0-27.5H164c0,0,3.7-0.1,6.7-6
		l-0.2-0.1c-0.1,0.2-0.5,0.3-1.7,0.3c-1.9,0-133.2,0-133.2,0v0.1c0,0,1.9,1.2,1.9,9.3c0,6.8,0.1,14.2,0.1,14.2v1.9v0.2l0,0
		c0-0.1-0.1-0.2-0.1-0.2c-0.6-1-8.7-14.3-10-16.2c0,0-3.6-5.6-5.5-7.6c-1.6-1.7-3.1-1.7-3.8-1.7c-0.8,0-8.7,0-8.7,0v0.1v0.1
		c0.1,0,2.2,1.2,2.2,10.2V41c0,9.3-2.2,10.3-2.2,10.3v0.1c0,0,6.7,0,8.1,0c1.4,0,1.4-1,1.4-1.2C18.9,49.9,18.9,50,18.9,41L18.9,41z"
		/>
	<path class="st0" d="M195.1,49c0-1.6,1.2-2.7,2.8-2.7c1.5,0,2.7,1.1,2.7,2.7c0,1.7-1.2,2.8-2.7,2.8C196.3,51.8,195.1,50.7,195.1,49
		L195.1,49z M197.9,51.4c1.2,0,2.1-1,2.1-2.4c0-1.2-0.9-2.3-2.1-2.3c-1.4,0-2.3,1-2.3,2.3C195.7,50.3,196.6,51.4,197.9,51.4
		L197.9,51.4z M197.2,50.7h-0.5v-3.3h1.2c0.8,0,1.1,0.3,1.1,0.9c0,0.6-0.3,0.9-0.8,0.9l0.9,1.5h-0.6l-0.9-1.5h-0.6V50.7L197.2,50.7z
		 M197.9,48.9c0.3,0,0.7-0.1,0.7-0.6c0-0.3-0.3-0.5-0.7-0.5h-0.7v1H197.9L197.9,48.9z"/>
</g>
</svg>
