<?xml version="1.0" encoding="utf-8"?>
<!-- Generator: Adobe Illustrator 25.2.3, SVG Export Plug-In . SVG Version: 6.00 Build 0)  -->
<svg version="1.1" id="Layer_1" xmlns="http://www.w3.org/2000/svg" xmlns:xlink="http://www.w3.org/1999/xlink" x="0px" y="0px"
	 viewBox="0 0 210 60" style="enable-background:new 0 0 210 60;" xml:space="preserve">
<style type="text/css">
	.st0{fill:#230871;}
</style>
<g>
	<path class="st0" d="M84.3,46.7c1.8,0,4.9-0.6,7.4-4.5c-1.4-3.1-2.4-9.4-2.5-11.7c-0.7-11.7,3.8-22.7,8.7-23
		c3.6-0.2,6.5,3.2,6.8,8.7c0.9,14.6-4,20.7-6.4,25.9c0.4,2,3.9,5.5,7.1,5.5c1.2,0,2.7-0.6,3-1.1c-0.2-0.8-0.5-1.9-0.5-3.5
		c0-8.4,5.4-15.6,10.1-15.6c3.7,0,5.9,4.9,5.9,8.2c0,3.9-3.3,7-8.1,10c0.8,0.8,2.4,1.4,3.7,1.4c6.9,0,10.5-8.3,13.2-15.9
		c0.5-1.4,1.3-3.5,3-3.5c2.9,0,4.1,19.1,8.9,19.1c2.1,0,3.7-4.2,3.7-7.5c0-2.4-0.8-2.7-0.8-6.2c0-3.9,2.1-7.1,4.8-7.1
		c1.7,0,2.3,1.7,2.3,3.7c0,7.7-5.6,22.1-13.8,22.1c-6.2,0-5.7-10.6-7.8-10.6c-2.4,0-5.8,10.8-17.8,10.8c-1.9,0-4-1-5.7-2.9
		c-2.9,1.9-5.3,2.8-8.1,2.8c-4.5,0-6.4-4.6-8.2-4.6c-2.2,0-4.6,4.7-11.8,4.7c-5.8,0-6.8-7.7-8.8-7.7c-1.8,0-4.6,7.7-7.6,7.7
		c-5.1,0-6.2-13.4-10.6-13.4C51.1,38.6,40,52.2,37,51.9c-1.2-0.1-1.7-1-1.6-2.2c0.2-1.7,1.6-6.1,2.2-8.3c1-3.7,1.9-7.7,2.4-9
		c0.5-1.3,1.8-2.2,2.9-2.1c0.5,0.1,0.7,1.1,0.9,1.9c0.6,3,1.5,6,2.4,6c1.7,0,7.3-10.7,10.6-10.7c4,0,4.5,16.9,9.9,16.9
		c1.8,0,3.1-2.2,4.3-4.8c0.1-4.5,1.3-10.9,4.9-10.9c2.5,0,3.7,5.7,1.9,10.6C77.9,45.3,81.7,46.7,84.3,46.7L84.3,46.7z M174.3,35.4
		c0-3-2.8-7.2-6.9-7.2c-5.4,0-10.7,5.9-10.7,14.1c0,7.4,4.6,9.8,9.2,9.8c8,0,12.8-6.5,15.3-12c1.2,3.6,1.9,12,5,12
		c1.2,0,2.1-0.6,3.5-3.9c3.6-8.1,7.1-17.4,11.9-17.4c1.8,0,0.7,3.3,5.1,3.3c2.1,0,3.5-1.7,3.5-3.6c0-2.8-2.5-4.9-6.4-4.9
		c-11.3,0-13.8,17-15.6,17c-3,0-2.1-13.6-4.2-13.6c-1.9,0-2.9,2.3-3.1,3.4c-1.6,6.3-6,15.3-12.8,15.3c-1.6,0-4.3-0.6-4.3-2.2
		C163.7,43.7,174.3,43.5,174.3,35.4L174.3,35.4z M100.8,19.5c-0.2-3.4-1-4.9-2.8-4.8c-2.4,0.1-3.5,7.7-3,15.7c0.3,5.2,1.1,6,1.8,5.9
		C98,36.3,101.2,27,100.8,19.5L100.8,19.5z M81.1,12.4c-0.1-1.9-1.7-3.3-3.7-3.3c-2.3,0-4.5,2.4-4.2,5.4c0,1.8,1.3,3.6,3.6,3.6
		C79.5,18.2,81.4,15.2,81.1,12.4L81.1,12.4z M118.7,37c0-2-1.1-3.7-2.4-3.7c-1.1,0-3.6,1.2-3.6,5.1c0,3,1.1,4.5,1.6,5.1
		C117.7,42.4,118.7,39.5,118.7,37L118.7,37z M165.9,33c2.5,0,3.3,3,2.7,4.8c-0.6,1.8-2.8,3.9-6.2,4.5C161.7,40.4,161.3,33,165.9,33
		L165.9,33z M-0.2,34.9C-0.3,29.9,0,25,2,18c1.1-3.7,2.1-5.1,5.4-5.8c2.7-0.5,2.4,2.3,1.8,5.5c-1.3,7.2-1.9,10.7-1.5,19
		c0.5,8.7,4.5,12.1,8.8,12.1c6.5,0.1,9.4-5.3,10.6-13.2c1-6.3,0.2-9.3-0.4-11.2c-0.4-1.1-1.3-3.5-1.7-5.3c-0.5-4.6,1.7-6.8,3.5-7.4
		c2.2-0.6,3,0.5,3.9,3c1.1,3.9,1.2,8.9,0.8,16.2c-0.5,9.9-5.4,21.9-17.7,21.6C5,52.3,0.3,45.4-0.2,34.9L-0.2,34.9z"/>
</g>
</svg>
